<?xml version="1.0" encoding="UTF-8"?>
<svg version="1.1" viewBox="0 0 2048 1987" width="168" height="163" xmlns="http://www.w3.org/2000/svg">
<path transform="translate(357,994)" d="m0 0 10 2 13 7 11 8 11 9 14 14 10 13 4 8 1 9-5 10-9 10-63 63-7 8-28 28-7 8-10 10-7 8-20 20-7 8-8 8-7 8-10 11-6 10 1 1h20l50-8 25-6 26-8 23-8 24-10 22-10 22-12 16-10 27-18 14-10 18-12 16-8 5-2h12l10 4 8 6 7 7 8 12 2 6-1 6-6 10-11 12-11 9-10 8-20 15-19 13-18 12-19 11-33 17-27 12-30 9-21 5-49 8-31 3-53 2-7 2 5 5 10 9 11 9 15 11 17 10 16 8 25 10 21 7 28 8 13 4 5-1 6-7 9-15 8-16 10-18 6-11 15-25 10-14 9-8 5-2 13 1 19 6 14 7 11 8 4 6 1 7-8 20-16 33-15 29-10 19-15 29-16 32-13 31-8 20-2 17 17-9 17-13 12-9 14-11 16-15 13-13 7-8 15-16 13-15 8-9h2l1-3 8-7 14-13 22-18 8-5 7-2h17l11 2 12 6 7 7 6 9 1 3v9l-6 24-7 18-8 16-9 16-8 14-16 27-11 19-13 24-9 17-13 23-14 27-7 21 11-7 4-4h2l1-3h2l2-4 7-7 9-11 28-30 7-7 7-8 5-4 7-8 8-9 4-11 4-18 7-51 5-30 2-11 2-16 3-11 9-19 5-6 10-5 5-1 23 1 16 4 7 6 3 6 1 8v36l14-7 10-7 19-10 14-5 11-2h17l12 3 12 7 10 9 10 13 8 14 6 16 3 19 1 19v36l14-10 9-8 10-7 16-9 16-5 7-1h15l10 3 11 8 7 8 7 12 5 15 2 13 2 36 3 74v32l7-4 9-8 11-14 20-30 19-29 7-11 4-8 2-8v-23l-6-48-6-44-2-19-1-21 2-15 5-9 8-9 13-8 16-6 11-2h10l6 3 6 10 6 17 3 16 3 17 2 5 19-28 9-10 9-9 10-7 12-6 10-3 7-1h10l13 2 10 4 10 6 10 8 12 12 11 15 13 22 5 9v2l5 2 5-1 9-11 4-14 2-19 5-22 7-20 10-19 8-10 7-8 11-9 12-9 20-12 24-13 16-9 14-6 7-1 8 3 10 9 7 7 10 13 11 19 15 29 16 32 12 25 9 17 15 30 9 17 8 16 9 17 9 9v-15l-1-40-1-68-2-30-3-21-6-20-6-15-11-21-18-27-11-16-16-24-11-21-7-17v-11l6-11 10-7 9-4 4-1h25l31 6 26 7 37 12 30 11 34 13 17 8 11 3 4-19 11-41 5-13 6-8 5-2h11l11 2 6 3 1 1v10l-4 28-5 20-8 24-7 17 4 2 8 8 8 6 14 12 7 8 9 10 9 13 11 23 2 8 1 18-2 19-3 12-6 13-6 10-11 14-11 11-14 9-16 8-11 4-14 2-18-1-18-6-16-8h-2l4 13 7 15 6 17v15l-4 8-5 6-10 6-7 1-10-6-8-10-9-17-8-17-8-13-3-6v17l3 35 1 19v25l-2 16-5 15-7 11-9 10-9 8-13 6-9 2-21 1-14-3-16-8-11-7-11-9-8-7-5-5-1-3h-2l-7-8-10-12-12-17-8-13-4-5-4 24-3 12-8 18-7 10-9 10-8 6-14 4h-15l-11-4-13-8-15-13-10-12-10-15-14-25-10-20-6 1-11 4-7 5-5 12-10 42-6 21-10 25-9 17-8 12-7 9-9 10-9 8-13 8-11 5-24 8-3 3 1 14 7 31 15 57 9 34 4 18 2 13v6l-7 8-21 9-15 4-15 1-9-2-7-6-8-13-9-20-13-36-15-44-9-28-10-33-14-49-3-4-8 10-10 14-13 18-11 14-12 13-11 8-15 6-9 2h-16l-14-3-8-4-10-9-6-7-10-19-6-18-5-22-4-29-4-35-1-16-2-14-8 7-7 9-9 16-14 30-10 26-13 40-8 19-6 10-6 7-8 3h-15l-12-3-8-6-6-12-1-5v-24l3-44 1-22v-132l-2-23-2-8-6 4-8 8-10 15-8 14-8 17-7 15-13 31-9 24-10 31-11 44-6 31-5 18-5 11-6 9-9 6-8 2h-16l-12-3-8-6-6-7-5-10-2-13v-59l-5 4-18 22-8 10-12 14-20 20-2 3h-2l-1 3h-2l-2 4-8 8-8 7-8 6-8 5-11 4-13 2h-10l-12-2-10-4-11-9-7-10-6-12-3-14v-25l4-20 6-20 11-26 13-26 6-10 7-15 4-11-11 7-9 7-20 15-16 10-10 5-18 5-5 1h-17l-16-4-13-7-10-9-9-11-7-15-4-14-1-7v-18l5-25 8-22 7-17 1-6-17-4-18-6-20-8-20-9-19-10-17-10-19-13-13-10-10-9-8-7-13-12-10-12-6-7-3-2-7 1-8 6-10 9-7 8-13 14-7 8-9 10-10 11-7 8-11 12-8 8-7 3-5 1-13-1-13-5-11-7-11-11-6-10-2-6v-9l5-12 9-13 12-16 10-13 26-32 7-10 3-6-1-6-9-10-9-11-10-12-11-17-7-18-2-10v-8l4-12 8-11 10-7 9-4 4-1h19l12 4 11 6 14 11 8 8 7 10 5 6v2l5-3 14-15 7-8 12-14 22-26 11-14 9-10 8-10 9-10 9-11 13-14 7-8 12-14 22-26 13-17 8-8 2-3h2v-2l11-8zm3 24-9 3-10 9-5 4v2l-3 1-7 8-11 12-9 11-11 13-9 11-11 12-7 8-10 11-7 8-12 14-26 32-16 17-7 8-12 14-11 13-12 14-11 14-11 13-4 5-4 2-4-3-10-7-11-7-15-12-5-8-1-3v-7l3-10 7-9 9-9 1-3-3-6-5-2h-16l-10 4-4 7-2 13 2 14 5 10 9 12 9 10 8 8 11 9 8 7 3 4-1 5-6 10-9 12-12 15-7 9-12 15-9 12-10 13-9 14-3 7 1 8 6 8 7 7 14 8h8l9-6 18-22 8-10 9-11 9-10 9-11 9-10 7-8 11-12 5-6 7-5 5 1 10 5 6-1 7-4 17-2 42-1 34-2 26-3 37-8 15-4 33-11 20-8 12-5 30-15 24-14 16-10 23-16 19-14 10-8 7-7 4-7-1-7-7-8-6-2-11 3-18 11-17 12-15 10-19 13-18 11-23 13-22 12-29 14-25 9-36 9-19 3-35 3h-51l-10-2-1-1 1-9 7-11 14-15 24-26 10-11 9-11 11-13 7-8 10-12 15-15 7-8 7-7 7-8 47-47 8-7 13-13 4-7-2-6-11-13-18-18-10-6zm1261 195-8 3-2 2 1 10 8 18 11 18 8 13 17 26 12 19 18 30 10 14 7 2h8l-1-8-8-16-14-25-12-19-14-22-9-13-3-7 9 1 38 12 27 11 31 13 20 10 12 8 7 8 6 12 2 9 3-2h18l14 4 22 12 13 9 11 16 5 12 4 14 3 13 3 5 5-2 7-8 4-10 3-17v-18l-3-12-6-14-12-16-12-12-11-9-14-12-13-11-10-7-11-5-14-5-33-14-29-11-38-13-29-8-29-6-15-2zm73 80 1 7 13 25 8 13 9 16 10 15 10 17 7 11 6 11 4 5 10 7h1l1-6 1-26 4-23 5-15 3-7-1-6-7-10-14-9-31-15-19-7-11-3zm-164 49-10 4-24 16-8 6-1 5 8 11 9 13 5 11 5 17 4 25 5 58 4 38 3-1 2-5 1-35 3-3h7l8 7 8 9 9 13 8 14 8 12 13 17 12 14 24 24 16 11 12 6 8 2h7l10-3 11-6 5-4 6-9 4-10 2-16 1-58v-43l-1-22-2-20-3-8-4-2-4 5v99l-1 36-2 22-3 8-5 4-5-2-7-7-10-15-9-15-13-24-12-22-8-16-10-19-8-16-10-19-11-22-10-19-21-42-10-15-4-5-6-4zm269 6 1 2zm-1 2-4 11-4 21-1 9v26l2 14 4 10 9 10 7 6 12 6 12 3h14l12-4 6-5v-2l-6-3-12-2-13-5-11-8-8-9-8-16-4-12-2-15-1-26-3-9zm32 9-8 4-3 6-1 4v21l4 12 7 12 10 9 8 5 5 2 9 1 7-2 8-7 2-6-1-12-5-13-6-9-9-11-10-9-12-6zm-375 26-10 4-7 8-11 18-6 12-7 21-2 10v12l3 6 9 8 8 7 7 8 2 4v3l-5 5-6 5-4 6 2 12 10 24 8 14 7 10 10 13 13 13 10 7 5 2 5-1 1-7-4-11-15-30-12-28-8-21-4-13-5-31-1-12v-23l2-17 3-13 6-15 1-9zm26 12-5 4-5 10-5 17-2 11v32l5 34 6 24 13 33 5 8 7 8 2-2 2-10v-63l-2-41-2-21-4-24-5-13-6-7zm247 0-6 4 5 16 6 16 9 19 24 48 11 18 8 9 3 1v-8l-3-12-12-31-5-11-6-15-9-19-8-16-6-11-8-8zm45 23m-1291-93-9 1-5 3-12 18-10 17-20 39-4 8-1 9 5 3 13 5 3 4-1 5-8 15-6 5-13 5-10 4-8 7-8 15-8 21-4 17-2 14v20l3 13 5 9 11 11 16 10 7 3h13l13-4 19-10 18-13 13-11 11-9 10-9 8-7 7-7 8-7 31-29 5-4 3-1-2 12-16 32-15 31-8 17-10 19-13 25-9 22-4 14-6 36-1 11v13l3 12 7 10 9 6 8 3h13l11-4 11-7 10-9 44-44 7-8 11-12 9-11 11-13 10-15 4-10 1-6-2-9-4 2-8 7-23 23-7 8-9 10-7 8-11 12-27 27-9 11-9 9v2l-4 2-8 5-10 1-2-3 1-7 3-9 7-25 12-32 12-26 13-25 8-14 13-24 10-18 11-19 6-11 13-25 12-22 8-16 6-14 2-12-3-8-6-4-4-1h-9l-9 3-14 9-11 9-10 9-12 11-15 15-11 9-15 15-8 7-11 11-8 7-30 26-10 8-14 10-14 9-16 9-10 3-4-6-2-9v-19l5-21 9-24 5-11 11-25 12-22 8-16 18-35 8-14 6-12 5-9 12-23 1-7-4-6-10-5-14-3zm236 97-7 3-3 4-5 16-7 33-9 52-6 37-1 7v16l10 8 2 5-1 7-7 12-5 8-4 13-2 16-1 34v19l2 15 6 12 6 4 7 2h8l7-4 5-9 5-21 5-25 10-43 13-46 11-30 13-30 13-24 8-12 8-11 14-15 10-9 8-9 2-4-12 1-12 4-11 6-12 9-16 15-11 12-8 9-9 6-1-3v-7l3-19v-54l-3-6-3-3-3-1zm434 12-12 6-5 5-4 6-2 9v40l4 32 8 56 3 12 3 5 13 2 7 2-1 7-8 13-2 6-1 10 3 26 6 27 18 61 16 50 18 54 10 24 6 10 6 4 3 1h10l12-3 6-4 3-4v-16l-8-31-19-67-7-27-6-27-1-8 5-2 10-7-2-4-11-11-9-17-2-13 1-11 8-16 9-13 12-14 5-4v-2l4-2 9-7 10-8 11-9 4-5 1-8-6 2-19 11-11 7-13 10-13 13-8 10-6 4-1-5v-44l2-25 5-29 8-27 5-15 1-4v-8l-4 2-11 8-6 10-11 21-5 15-4 6-3 1-6-3-3-7-5-24-12-47-5-8-5-2zm125 4-10 2 2 4 12 12 9 7 10 12 8 16 5 15 2 13v19l-2 15 5 16 1 4-1 18-4 24-6 20-8 18-8 16-5 9-1 5 5 2 5-1 10-6 9-9 12-18 10-22 6-20 12-50 5-12 8-15-1-7-8-7h-2l-2-4-7-9-6-11-7-13-10-14-9-10-7-7-13-8-14-4zm-437 14-2 2 13 30 4 13 4 31 1 19v46l-2 48-4 59-1 11v25l3 6 5 2h6l6-4 8-16 7-17 7-20 6-15 14-37 9-20 6-12 8-11 7-8 15-10 11-5 6 1 3 5 10 73 6 44 3 16 7 20 6 11 5 4 7 4h4v-9l-4-31-2-23-2-50-1-36-3-21-5-13-6-9-9-6-4-1h-15l-12 3-10 5-11 8-15 15-9 11-11 14-8 6-11 4v-63l-3-33-4-22-5-13-8-14-9-10-9-6-3-1zm424 16-5 4-7 15-6 18-5 21-5 33v16l6-1 16-8 23-13 14-10 4-4 3-10-1-10-6-18-8-16-6-8-8-7-3-2zm31 126-15 8-13 11-13 13-12 16-5 12v10l5 12 4 3 12 3 9-2 8-10 8-16 9-23 5-17 2-17-1-3z" fill="#0E0C0E"/>
<path transform="translate(1182,33)" d="m0 0h21l21 3 17 5 16 7 16 12 8 9 6 10 4 13 2 25 1 49 7-9 14-17 11-10 14-9 15-5 15-2h25l19 2 16 5 12 7 9 7 9 9 10 15 11 21 6 16 4 18 2 17 1 33-1 40-2 31-5 52-8 91-4 57v42l3 29 5 33 6 31 34 140 4 20 1 8v19l-3 12-6 15-14 21-8 10-9 11-14 15-9 9-8 7-13 13-8 7-15 14-13 12-14 13-8 7-11 10-11 9-13 12-11 9-14 13-11 9-11 10-8 7-9 8-7 8-12 15-14 21-14 27-9 21-5 16-3 22-2 16-4 6-4 2-7-4-4-5-4-13-1-10v-15l3-19 6-16 11-21 7-11 12-17 11-14 12-14 16-17 29-29 8-7 7-7 8-7 14-13 8-7 10-9 11-9 14-13 11-9 7-7 8-7 16-15 8-7 7-7h2l1-3 8-7 21-21 9-11 9-13 6-12 2-8v-26l-3-23-7-34-14-57-24-100-8-32-7-21-8-16-8-14-10-14-8-8-10-4h-27l-36 4-46 6-44 4-21 1-85 1-12 2-2 4-2 11v9l3 17 7 14 11 14 13 13 14 11 11 8 15 10 19 11 21 10 22 8 12 3 7 1h16l16-3 12-4 11-6 12-9 11-15 9-17 5-10 6-6h7l2 2 1 4v17l-4 15-9 16-7 9-8 9-13 9-17 9-16 8-3 3v28l26-1 12-1h13l5 3v7l-6 7-6 3-14 3-23 3-6 1 1 7 12 20 4 8 1 7-3 3-3 1h-7l-8-3-9-9-8-13-4-10-3-14-1-16 1-19 2-17-20-4-27-9-21-9-25-13-16-10-16-12-10-8-12-11-10-9-9-11-7-9-8-14-5-12-2-9-1-19 4-13 7-13 8-9 6-4 8-2 83-1 46-2 41-3 28-4 40-8 17-2h12l12 3 16 8 11 10 7 8 9 10h1l5-46 5-51 6-54 5-64 1-18v-40l-1-17-4-23-6-18-8-16-7-11-11-12-14-8-9-3-13-2h-18l-15 2-14 5-11 8-8 8-9 13-11 21-7 19-6 21-4 21-5 39-3 41-1 33v61l4 11 6 9 7 6 11 4 16 1 14-3 9-4 8-7 5-8 3-10 11-46 5-26 3-23 6-19 9-16 8-10 11-11 13-9 6-1 4 3v9l-6 12-11 17-8 15-5 17-14 78-4 15-5 12-7 11-13 13-14 8-22 5h-28l-14-3-10-5-8-9v-2l-4-2-2-2-9 1-15 9-11 5-20 4h-18l-19-3-17-6-16-8-6 4-15 15-14 7-12 2-22 1-16-2-10-3-12-8-13-12-10-10v-2l-4-2-28 2-20-1-15-3-17-6-13-7-10-8-10-10-11-15-9-16-16-31-9-10-19-14-8-7-6-8-2-5v-6l2-2h6l17 8 3 1h7l8-15 4-3h6l4 4 3 8 8 32 8 23 8 14 9 12 9 11 15 15 10 7 15 6 14 3h7l13-4 6-4 2-5v-10l-6-31-16-65-9-39-7-23-5-12-7-11-7-7-10-6-14-5-12-3-7-1h-22l-11 3-14 7-10 8-9 10-8 14-8 18-6 21-3 19-2 35-6 58-5 30-7 30-13 43-18 57-15 52-12 46-11 49-10 53-4 27-5 47-2 29-2 40v50l3 51 6 50 5 28 10 41 12 41 21 64 7 29v7l-2 2h-8l-7-4-6-8-9-19-10-26-11-31-11-35-11-45-6-35-3-28-3-49v-108l2-38 3-38 6-50 7-45 11-53 13-49 14-45 18-57 10-33 8-32 6-33 5-39 6-60 4-24 4-15 5-15 11-22 12-16 11-11 13-9 13-6 14-4 18-2h9l15 2 19 5 3 1 1-23 4-21 6-16 9-16 11-13 12-9 16-8 13-3 9-1h24l23 3 21 7 8 4 5-1 8-7 9-11 12-13 7-7 10-7 16-8 17-4zm-2 19-16 3-10 4-11 8-12 11-8 10-7 14-3 12v20l10 76 11 96 5 55 4 49 3 16 5 10 8 11 14 9 9 3 11 2h16l10-3 13-7 12-11 11-16 4-19 2-49 4-53 6-82 1-26v-78l-2-22-6-12-11-11-11-7-16-7-21-5-11-1zm-169 45-16 4-11 7-6 5-7 10-6 10-7 19-4 16-2 16 1 12 11 18 7 11 9 21 5 15 18 70 16 64 6 35 4 11 7 13 9 9 11 5 8 2 9 1h20l10-3 10-8 8-9 3-8 1-22-2-41-3-42-9-82-8-70-5-36-4-15-8-14-5-6-14-9-14-5-15-3-8-1z" fill="#0F0D0F"/>
<path transform="translate(1715,1506)" d="m0 0h1v78l-2 12-2 2 1-15 1-58z" fill="#FEFEFE"/>
<path transform="translate(874,1477)" d="m0 0 3 3 7 15 3 11 2 15v19h-1l-3-27-4-18-5-12z" fill="#FEFEFE"/>
<path transform="translate(816,305)" d="m0 0h6l6 3-4 1h-7l-2 4h-1v-6z" fill="#FEFEFE"/>
<path transform="translate(1697,1290)" d="m0 0 12 3v1l-15-1-1 2v-4z" fill="#FEFEFE"/>
<path transform="translate(937,216)" d="m0 0 5 2 6 5 2 5-7-6-6-5z" fill="#FEFEFE"/>
<path transform="translate(572,1497)" d="m0 0h3l-1 4-6 2-4 2 5-6z" fill="#FEFEFE"/>
</svg>
