<?xml version="1.0" encoding="UTF-8"?>
<svg version="1.1" viewBox="0 0 1600 1600" width="1280" height="1280" xmlns="http://www.w3.org/2000/svg">
<path transform="translate(600 799)" d="m0 0c3.33 1.3 5.63 3.14 8.37 5.43 0.976 0.803 1.95 1.61 2.96 2.43 0.736 0.703 1.47 1.41 2.23 2.13v2c0.99 0.33 1.98 0.66 3 1 0.839 2.68 1.27 4.26 1 7-1.14 1.75-1.14 1.75-2.81 3.56-0.641 0.696-1.28 1.39-1.94 2.11-4.83 5-9.76 9.89-14.7 14.8-5.18 5.11-10.3 10.3-15 15.8-2.88 3.28-6.04 6.27-9.19 9.28-3.63 3.55-6.5 7.29-9.36 11.5 28.1-2.17 50.9-10.9 73.9-27.5 9.09-6.43 9.09-6.43 14.4-6.63 4.86 1.99 7.08 4.62 9.19 9.38-0.619 5.31-3.07 6.92-7.11 10.2-1.11 0.845-2.22 1.69-3.33 2.52-0.623 0.477-1.25 0.953-1.89 1.44-9.82 7.44-19.9 13.6-31.1 18.6-0.905 0.407-1.81 0.815-2.74 1.23-16.7 6.77-35.5 8-53.3 7.77 10.6 14.4 28.4 19.2 45 23 3.29-5.03 6.17-10.2 8.94-15.5 3.09-5.91 6.3-11.7 11.1-16.5 6.42 0.229 11.9 1.89 17 6 0.945 2.39 1.12 3.61 0.354 6.08-0.361 0.738-0.721 1.48-1.09 2.24-0.605 1.26-0.605 1.26-1.22 2.54-0.446 0.894-0.893 1.79-1.35 2.71-0.678 1.39-0.678 1.39-1.37 2.81-3.5 7.12-7.18 14.1-10.9 21.1-5.09 9.59-9.17 19.1-12.4 29.5 8.98-5.58 24.1-15.3 29-25h2c0.66-1.32 1.32-2.64 2-4h2v-2c1.47-1.48 1.47-1.48 3.5-3.19 0.724-0.615 1.45-1.23 2.2-1.86 0.761-0.643 1.52-1.29 2.3-1.95 2.12-1.87 4.23-3.74 6.34-5.62 3.47-2.89 6.22-2.75 10.7-2.38 3.59 1.32 6.31 3.08 8.62 6.19 1.56 11.7-9.99 26.5-15.6 36.5-3.63 6.5-7.15 13.1-10.6 19.6-0.525 0.985-1.05 1.97-1.59 2.98-0.731 1.39-0.731 1.39-1.48 2.82-0.434 0.823-0.868 1.65-1.31 2.49-1.09 2.47-1.63 4.74-2.06 7.39 2.3-2.43 4.59-4.87 6.88-7.31 0.651-0.69 1.3-1.38 1.97-2.09 0.625-0.667 1.25-1.33 1.89-2.02 0.576-0.613 1.15-1.23 1.75-1.86 1.7-1.85 1.7-1.85 3.51-4.72h2c0.268-0.639 0.536-1.28 0.812-1.94 1.19-2.06 1.19-2.06 4.19-3.06v-2c0.781-0.634 1.56-1.27 2.37-1.92 4-3.86 4.06-9.05 4.76-14.3 0.325-2.16 0.651-4.32 0.977-6.48 0.3-2.09 0.6-4.18 0.898-6.27 0.475-3.21 0.978-6.42 1.5-9.62 0.196-1.29 0.392-2.58 0.594-3.91 1.03-3.94 2.2-6.41 4.91-9.46 2.88-0.656 2.88-0.656 6-0.5 1.03 0.0309 2.06 0.0619 3.12 0.0938 2.77 0.392 4.54 0.893 6.88 2.41 1.38 2.76 1.1 5.05 1.06 8.12-0.00902 1.1-0.018 2.19-0.0273 3.32-0.0174 1.26-0.0174 1.26-0.0352 2.55 1.09-0.659 1.09-0.659 2.21-1.33 0.92-0.55 1.84-1.1 2.79-1.67 0.755-0.458 1.51-0.915 2.29-1.39 6.24-3.48 11.6-4.83 18.7-3.61 6.85 3.36 10.5 8.86 13.2 15.8 1.56 6.6 1.03 13.4 0.75 20.2 3.3-1.95 6.51-3.98 9.69-6.12 5.59-3.77 9.51-4.8 16.3-3.88 4.69 2.25 7.2 6.25 9 11 0.913 5.2 1.2 10.3 1.32 15.6 0.0208 0.789 0.0416 1.58 0.063 2.39 0.0649 2.5 0.124 4.99 0.183 7.49 0.0432 1.7 0.0869 3.4 0.131 5.11 0.106 4.15 0.208 8.3 0.307 12.5 3.78-2.01 5.91-3.82 8.19-7.42 0.552-0.861 1.1-1.72 1.67-2.61 0.56-0.897 1.12-1.79 1.7-2.72 0.564-0.882 1.13-1.76 1.71-2.67 1.1-1.73 2.19-3.47 3.26-5.22 1.47-2.35 1.47-2.35 2.8-4.1 4.08-5.68 2.53-11.8 1.67-18.3-0.252-2.24-0.503-4.47-0.754-6.71-0.403-3.36-0.814-6.71-1.23-10.1-1.72-14.3-1.72-14.3-0.0176-18.9 4.46-5.15 10.4-6.76 17-7.31 3.61 5.16 6 11.7 6 18h2c0.227-0.701 0.454-1.4 0.688-2.12 3.19-6.99 8.17-11.2 15.3-13.9 5.63-1.18 9.84-0.504 14.8 2.5 6.1 4.57 10.3 10.5 13.2 17.5v2c3.75-1.63 3.75-1.63 7-4 0.326-2.35 0.61-4.71 0.875-7.06 1.46-11.3 4.22-18.3 13.1-25.9 4.51-3.04 9.32-5.55 14.1-8.04 2.48-1.29 4.92-2.65 7.35-4.02 1.17-0.646 2.33-1.29 3.5-1.94 8.07 4.36 11.7 12.2 15.7 20.2 0.705 1.42 1.41 2.85 2.12 4.27 0.365 0.738 0.73 1.48 1.11 2.24 3.02 6.09 6.11 12.2 9.2 18.2 0.794 1.56 1.58 3.12 2.37 4.68 1.16 2.3 2.33 4.6 3.51 6.89 0.348 0.695 0.696 1.39 1.05 2.11 1.91 3.71 3.84 6.62 6.99 9.38-0.16-0.948-0.32-1.9-0.484-2.87-0.671-4.71-0.699-9.41-0.77-14.2-0.0493-1.96-0.101-3.93-0.154-5.89-0.0823-3.06-0.154-6.12-0.189-9.17-0.17-13.5-1.28-22.8-9.4-33.9-0.936-1.44-1.87-2.88-2.79-4.33-0.795-1.16-1.59-2.32-2.39-3.48-9.46-14-9.46-14-10.4-20 0.625-3.19 0.625-3.19 2.62-5.56 6.45-3.49 12.5-2.73 19.2-0.938 0.748 0.189 1.5 0.377 2.27 0.572 14.3 3.67 27.8 9.31 41.5 14.7 0.189-0.819 0.379-1.64 0.574-2.48 3.99-17.1 3.99-17.1 7.43-20.5 5.53-0.235 5.53-0.235 8 1 0.544 8.02-1.41 14.5-4 22-0.667 2-1.33 4-2 6 0.797 0.606 1.59 1.21 2.41 1.84 6.81 5.33 11.7 10.2 15.6 18.2 0.33 0.66 0.66 1.32 1 2 0.851 9.04 0.488 16.5-5 24-5.75 6.62-12.8 10.2-21.4 11.6-5.3-0.837-9.8-3.15-14.6-5.56 0.349 0.641 0.699 1.28 1.06 1.94 4.94 9.39 4.94 9.39 4.94 15.1-1.06 2.88-1.06 2.88-3 5-3.19 0.812-3.19 0.812-6 1-4.55-6.34-7.96-12.8-11-20 0.0722 1.02 0.144 2.03 0.219 3.08 2.05 29.8 2.05 29.8-4.66 38.4-3.88 3.78-6.78 4.84-12.2 5.06-7.14-0.122-11.2-2.94-16.4-7.56-0.625-0.54-1.25-1.08-1.89-1.64-5.51-5.14-10.7-11.6-14.1-18.4-0.13 1.16-0.13 1.16-0.262 2.34-1.08 8.03-2.64 14.4-9.18 19.6-3.65 1.51-6.49 2.64-10.4 1.54-11.3-4.85-16.3-15.9-21.1-26.5-2.97 1.12-5.33 2.22-8 4-0.697 1.83-0.697 1.83-0.992 3.96-0.145 0.795-0.29 1.59-0.439 2.41-0.22 1.27-0.22 1.27-0.444 2.56-2.56 13.3-7.35 24.9-18 33.7-4.04 2.56-8.55 3.88-13.1 5.32 1.21 8.41 3.09 16.4 5.5 24.6 2.29 7.77 4.22 15.4 5.5 23.4-5.08 3.56-11.6 6.44-17.9 5.62-5.06-3.87-7.21-10.9-9.31-16.8-0.433-1.19-0.433-1.19-0.876-2.4-5.32-14.9-10.3-30.1-13.9-45.5-2.68 2.48-4.66 5.26-6.75 8.25-8.77 12.2-8.77 12.2-15.2 14.8-4.46 0.71-8.88 0.894-13.1-0.887-6.83-5-9.16-13.3-10.4-21.3-2.5-18.9-2.5-18.9-2.5-25.8-10.3 9.4-14 25.1-18.2 37.9-1.44 3.89-2.2 5.68-5.76 8.05-2.16 0.117-2.16 0.117-4.5-0.125l-2.34-0.195c-2.93-0.924-3.72-1.98-5.16-4.68-0.328-2.78-0.328-2.78-0.25-5.94 0.0155-1.02 0.0309-2.04 0.0469-3.09 0.113-2.21 0.242-4.41 0.439-6.61 0.824-9.25 0.917-18.4 0.895-27.7-0.00542-2.65 7.65e-6 -5.31 0.00635-7.96-6.6e-4 -1.7-0.00194-3.4-0.00391-5.11 0.00202-0.786 0.00405-1.57 0.00613-2.38-0.0164-3.85-0.202-7.44-1.14-11.2-2.4 0.374-3.67 0.629-5.31 2.47-10.1 17.2-16.7 36.2-20.8 55.7-0.174 0.824-0.347 1.65-0.526 2.5-0.316 1.55-0.617 3.1-0.897 4.65-0.862 4.37-1.77 7.06-5.47 9.68-4.17 0.947-8.01 0.401-11.9-1.19-2.92-2.57-3.93-5-4.22-8.91-0.0396-2.41-0.0175-4.81 0.032-7.22 0.00902-0.836 0.018-1.67 0.0273-2.53 0.0234-2.05 0.0593-4.1 0.0977-6.15-3.52 3.48-6.92 7.03-10.2 10.7-0.871 0.953-1.74 1.91-2.64 2.89-2.11 2.23-2.11 2.23-3.11 4.43h-2c-0.238 0.584-0.477 1.17-0.723 1.77-1.54 2.69-3.25 4.05-5.71 5.92-0.782 0.602-1.56 1.2-2.37 1.82-4.45 3.02-8.99 2.99-14.2 2.49-4.16-1.76-6.43-4.33-9-8-5.06-15.2 5.4-32.8 12-46l-1-1c-0.678 0.603-1.36 1.21-2.05 1.83-7.03 6.04-13.2 10.4-22.5 11.7-5.74-0.835-10.6-2.73-14.8-6.75-4.38-7.42-5.45-13.2-3.62-21.8 1.48-4.75 3.17-9.37 5-14-1.11-0.329-2.23-0.657-3.38-0.996-19.9-6.12-36.2-15.7-49.6-32-2.9 1.3-4.85 2.64-6.99 4.98-0.538 0.585-1.08 1.17-1.63 1.77-0.838 0.929-0.838 0.929-1.69 1.88-0.577 0.63-1.15 1.26-1.75 1.91-3.58 3.92-7.12 7.88-10.6 11.9-3.96 4.49-3.96 4.49-7.55 5.05-5.92-0.777-10-3.4-13.9-7.94-1.22-3.32-0.773-5.14 0.0625-8.56 1.46-2.5 1.46-2.5 3.38-5 0.709-0.935 1.42-1.87 2.15-2.83 0.824-1.06 1.65-2.11 2.48-3.17 0.72-0.925 0.72-0.925 1.45-1.87 3.16-4.06 6.35-8.1 9.55-12.1-1.21-2.63-2.1-4.09-4.25-6.12-4.77-4.98-9.05-10.6-9.38-17.7 0.289-4.08 1.61-6.35 4.62-9.19 3.78-1.89 7.89-1.62 12-1 5.33 2.46 9.82 6.02 13 11v2c3.8-3.71 7.31-7.58 10.8-11.6 0.524-0.613 1.05-1.23 1.59-1.86 3.93-4.61 7.76-9.29 11.6-14 3.26-3.94 6.67-7.72 10.1-11.5 1.21-1.37 2.42-2.75 3.62-4.12 0.574-0.652 1.15-1.3 1.74-1.98 1.04-1.21 2.06-2.43 3.05-3.67 10.7-13.2 10.7-13.2 17-13.2zm-6.52 9.7c-0.512 0.53-1.02 1.06-1.55 1.6-0.533 0.543-1.07 1.09-1.62 1.64-4.13 4.26-7.92 8.75-11.6 13.4-2.13 2.64-4.36 5.15-6.64 7.65-3.08 3.37-6.01 6.82-8.88 10.4-3.68 4.55-7.54 8.85-11.5 13.1-3.91 4.22-7.55 8.62-11.1 13.1-1.88 2.26-3.86 4.33-5.97 6.38-1.61-0.932-3.21-1.87-4.81-2.81-0.893-0.522-1.79-1.04-2.71-1.58-4.03-2.61-4.03-2.61-5.48-4.61-0.0742-2.26-0.0742-2.26 0.312-4.69 0.12-0.808 0.24-1.62 0.363-2.45 0.107-0.615 0.214-1.23 0.324-1.86 1.65-0.66 3.3-1.32 5-2-0.66-0.99-1.32-1.98-2-3-2.96-0.583-2.96-0.583-6 0-2.12 1.46-2.12 1.46-3 4 0.0979 5.29 1.49 9.1 5 13 3.25 3.1 6.59 6.07 10 9-1.49 4.58-4.12 7.94-7.12 11.6-0.988 1.24-1.98 2.48-2.96 3.72-1.41 1.77-2.82 3.53-4.23 5.29-1.16 1.46-2.3 2.94-3.44 4.42-0.655 0.837-1.31 1.67-1.98 2.54-1.5 2.34-1.5 2.34-1.11 5.07 1.19 3.29 2.92 4.5 5.85 6.34h4c2.17-2.09 2.17-2.09 4.19-4.88 3.73-4.76 7.59-9.29 11.7-13.8 2.62-2.9 5.13-5.87 7.63-8.87 1.51-1.5 1.51-1.5 4.51-2.5 2.19 0.938 2.19 0.938 4 2 0.66-0.66 1.32-1.32 2-2 2.62-0.24 2.62-0.24 5.95-0.238 1.23-0.0125 2.46-0.025 3.73-0.0378 0.654-0.00494 1.31-0.00989 1.98-0.015 35.5-0.374 62.5-12.2 89.3-34.7-0.33-1.65-0.66-3.3-1-5-2.97-1.37-2.97-1.37-5.57 0.188-0.989 0.598-1.98 1.2-3 1.81-1.08 0.651-2.15 1.3-3.26 1.97-2.75 1.75-5.41 3.57-8.05 5.46-6.09 4.36-12.6 7.96-19.1 11.6-0.831 0.476-1.66 0.951-2.52 1.44-16.2 8.78-38.3 13.1-56.5 9.56 0.254-5.57 3.8-8.39 7.5-12.1 1.29-1.34 2.58-2.68 3.86-4.02 0.627-0.656 1.25-1.31 1.9-1.99 2.27-2.44 4.36-5 6.42-7.61 4.05-5.09 8.53-9.55 13.2-14 2.32-1.95 2.32-1.95 2.09-4.21 0.577-0.227 1.15-0.454 1.75-0.688 2.38-1.21 2.38-1.21 4-3.5 1.98-2.47 3.86-4.28 6.25-6.31 3.06-2.61 5.63-5.24 8-8.5-0.791-2-0.791-2-2-4-0.99-0.33-1.98-0.66-3-1v-2c-5.34-4.98-7.58-6.78-13.1-1.29zm347 52.3c1.68 4.82 4.27 8.94 6.94 13.2 0.481 0.78 0.963 1.56 1.46 2.36 1.53 2.47 3.07 4.93 4.6 7.39 0.509 0.819 1.02 1.64 1.54 2.48 1.48 2.37 2.96 4.72 4.46 7.08 0.456 0.732 0.912 1.46 1.38 2.22 2.48 4.09 2.48 4.09 6.62 6.22-0.419-5.96-3.12-9.97-6.25-14.9-0.478-0.764-0.956-1.53-1.45-2.32-0.953-1.52-1.91-3.04-2.87-4.56-2.16-3.41-4.29-6.83-6.43-10.3 7.97 1.93 15.3 4.62 22.8 7.94 0.997 0.43 1.99 0.86 3.02 1.3 11.4 5 11.4 5 15.2 8.76 0.368 2.33 0.702 4.66 1 7l2-2c3.32-0.647 5.35-0.372 8.29 1.31 1.57 1.07 3.13 2.16 4.66 3.28 2.09 1.58 2.09 1.58 5.05 2.41 1 1.69 1 1.69 2 4 0.516 0.949 1.03 1.9 1.56 2.88 1.43 3.11 2.03 5.74 2.44 9.12 0.99-0.33 1.98-0.66 3-1 2.94-5.88 3.8-10.6 2-17-3.3-7.61-9.5-12.3-15.9-17.2-2.12-1.75-2.12-1.75-4.12-4.75-1.83-0.449-3.67-0.889-5.51-1.29-2.92-0.834-5.45-2.06-8.18-3.4-5.89-2.8-11.9-5-18.1-7.06-0.875-0.294-1.75-0.587-2.65-0.889-10.5-3.47-10.5-3.47-21.5-4.61-1.08-0.00773-1.08-0.00773-2.18-0.0156-2.27 0.165-2.27 0.165-4.95 2.27zm-412 3v2c0.66-0.33 1.32-0.66 2-1-0.66-0.33-1.32-0.66-2-1zm434 16c4.85 9.29 10.3 18.2 15.8 27.1 0.989 1.62 1.91 3.29 2.81 4.96 0.447 0.647 0.895 1.29 1.36 1.96h3c-0.0619-1.22-0.124-2.43-0.188-3.69-0.0602-5.42 1.37-10.2 2.92-15.4 0.579-2.95 0.579-2.95-1.2-5.07-3.11-2.26-6.36-3.94-9.85-5.53-0.639-0.307-1.28-0.615-1.94-0.932-4.28-1.98-8.06-2.93-12.8-3.38zm-50.7 18c-1.49 1.11-1.49 1.11-3.01 2.25-1.14 0.866-1.14 0.866-2.3 1.75 0.41 0.473 0.82 0.946 1.24 1.43 0.808 0.992 0.808 0.992 1.63 2 0.534 0.638 1.07 1.28 1.62 1.93 4.6 8.02 4.32 18.6 5.13 27.7 0.135 1.45 0.27 2.9 0.406 4.36 0.329 3.53 0.651 7.05 0.969 10.6h1v-13c6.74 2.25 6.74 2.25 8.61 5.27 0.421 0.654 0.841 1.31 1.27 1.98 0.432 0.699 0.863 1.4 1.31 2.12 6.21 9.53 13.5 20.2 23.8 25.6 4.17 0.876 7.17 0.505 10.9-1.75 4.53-4.8 4.41-8.85 4.36-15.2-4.58e-4 -0.868-9.16e-4 -1.74-0.00139-2.63-0.00302-1.83-0.0109-3.67-0.0233-5.5-0.0182-2.8-0.0205-5.59-0.0203-8.39-0.00492-1.79-0.0107-3.57-0.0176-5.36-0.00111-0.831-0.00223-1.66-0.00337-2.52-0.0351-4.33-0.303-8.41-1.16-12.7l-2 1c0.00524 1.11 0.0105 2.22 0.0159 3.36 0.0182 4.14 0.0296 8.29 0.0391 12.4 0.00501 1.79 0.0118 3.58 0.0205 5.37 0.0122 2.58 0.0178 5.16 0.0222 7.75 0.00516 0.79 0.0103 1.58 0.0156 2.39 4.96e-4 4.99-0.403 9.76-1.11 14.7-4 0-4 0-5.5-1.37-3.93-5.53-7.13-11.3-10.2-17.3-1.05-2.05-2.1-4.09-3.15-6.14-0.526-1.03-1.05-2.06-1.59-3.12-2.4-4.68-4.86-9.33-7.32-14-2.59-4.92-5.16-9.84-7.61-14.8-0.364-0.739-0.728-1.48-1.1-2.24-0.669-1.37-1.33-2.74-1.99-4.11-2.12-4.45-2.12-4.45-5.55-7.88-4.03 0-5.49 1.6-8.69 4zm79.7-1c-2.23 7.4-3.58 15.5-0.875 22.9 2.78 4.55 5.84 6.43 10.9 8 3.73 0.0776 5.83-1.05 9-2.94v-1c-0.592-0.0864-1.18-0.173-1.79-0.262-5.54-0.984-8.68-2.08-12.2-6.74-3.67-6.29-3.69-12.8-4-20h-1zm7 2c-1.61 3.23-1.45 6.5-1 10 1.4 4.06 3.39 6.59 7 9 3.02 1.01 4.16 1.32 7 0 2.36-1.9 2.36-1.9 2.06-5.12-0.86-5.06-4.46-8.45-8.06-11.9-2.95-2.37-2.95-2.37-7-2zm-102 7c-4.83 5.19-8.15 10-9.38 17.1-0.193 1.03-0.387 2.07-0.586 3.13-0.32 2.73-0.32 2.73 1.25 4.45 0.563 0.427 1.13 0.853 1.71 1.29 1.71 1.63 3.38 3.29 5 5v2c-2 1.62-2 1.62-4 3 1.22 9.66 6.83 18.5 14 25 2.72 1.53 2.72 1.53 5 2-0.499-3.89-1.87-6.88-3.73-10.3-8.06-14.9-12.7-31.9-7.77-48.7 0.477-1.34 0.967-2.68 1.5-4h-3zm9 3c-5.47 6.13-5.37 11.1-5 19 0.811 9.25 2.79 18.7 7 27 2.02 1.19 2.02 1.19 4 2 0.198-10.9 0.14-21.6-0.875-32.4-0.0785-0.868-0.157-1.74-0.238-2.63-0.467-4.57-1.22-8.62-2.89-12.9h-2zm66 0c0.557 5.21 2.29 9.06 4.69 13.6 0.723 1.41 1.45 2.82 2.17 4.23 0.36 0.695 0.72 1.39 1.09 2.11 1.55 3 3.05 6.02 4.55 9.04 0.485 0.969 0.969 1.94 1.47 2.94 0.34 0.681 0.681 1.36 1.03 2.06h2c-1.03-6.28-3.81-11.8-6.38-17.6-0.743-1.7-0.743-1.7-1.5-3.44-0.723-1.64-0.723-1.64-1.46-3.31-0.439-0.995-0.878-1.99-1.33-3.01-1.25-2.5-2.48-4.58-4.33-6.67h-2zm-342-19c-4.52 4.58-7.33 11.3-10.4 16.9-0.358 0.663-0.716 1.33-1.08 2.01-1.9 3.34-1.9 3.34-2.54 7.05 1.98 0.66 3.96 1.32 6 2-1.04 2.89-2.19 5.5-4 8-1.87 0.848-1.87 0.848-3.94 1.38-2.81 0.815-3.84 1.33-5.62 3.7-3.86 7.46-6.24 15.5-5.44 23.9 1.66 5.18 4.36 7.51 8.96 10.1 3.1 1.41 4.66 1.67 8.04 0.926 11.8-5.23 21.6-15.7 30.9-24.3 2.55-2.13 5.28-3.91 8.06-5.72-3.93 8.45-7.9 16.9-12.1 25.2-9.91 18.9-9.91 18.9-11.9 39.8 1.11 2.76 1.87 3.89 4.19 5.81 2.82 1.19 4.79 1.69 7.82 1.06 4.82-2.1 8.37-6.17 12-9.87 0.519-0.529 1.04-1.06 1.57-1.6 11.3-11.4 11.3-11.4 20.4-24.4-0.152-2.28-0.152-2.28-1-4-5.98 5.89-11.9 11.7-17.3 18.1-2.49 2.82-5.19 5.42-7.88 8.05-1.93 1.9-1.93 1.9-3.84 4.63-2.56 2.9-5.39 3.76-8.94 5.19 4.03-21.4 16.2-40.7 26.6-59.5 2.22-4 4.42-8.01 6.59-12 0.375-0.676 0.749-1.35 1.14-2.05 2.05-3.82 3.23-7.14 3.68-11.5-1.62-1.76-1.62-1.76-4-3-5.18 1.09-8.32 3.71-12 7.31-1.14 1.08-2.28 2.17-3.42 3.25-0.586 0.563-1.17 1.13-1.77 1.71-3.01 2.88-6.06 5.71-9.12 8.54-0.595 0.553-1.19 1.11-1.8 1.67-4.23 3.92-8.5 7.77-12.9 11.5-0.935 0.825-1.87 1.65-2.83 2.5-5.7 4.97-11 8.86-18.2 11.5-2.26-6.77-1.09-13.1 1.5-19.5 0.406-1.04 0.406-1.04 0.82-2.1 3.99-9.97 9.08-19.4 14.1-28.9 0.597-1.13 1.19-2.26 1.81-3.42 1.2-2.26 2.41-4.52 3.62-6.77 0.549-1.04 1.1-2.07 1.66-3.14 0.748-1.39 0.748-1.39 1.51-2.82 1.28-2.47 1.28-2.47-0.0471-5.38-3.32-1.71-5.18-2-9-2zm65 27c-1.86 4.13-2.74 8.28-3.51 12.7-0.13 0.733-0.261 1.47-0.395 2.22-0.273 1.55-0.544 3.09-0.812 4.64-0.409 2.35-0.829 4.71-1.25 7.06-0.265 1.51-0.529 3.01-0.793 4.52-0.187 1.05-0.187 1.05-0.379 2.11-0.676 3.95-1.13 7.73-0.863 11.7l1.56 1.56c0.474 0.474 0.949 0.949 1.44 1.44-0.212 4.03-1.97 6.61-4 10-1.39 4.91-1.26 10-1.31 15.1-0.029 0.898-0.058 1.8-0.0879 2.72-0.1 5.25-0.1 5.25 2.25 9.82 2.59 1.68 4.12 1.73 7.15 1.39 1.65-2.98 2.46-5.66 3.08-9.01 0.188-0.978 0.376-1.96 0.57-2.96 0.199-1.04 0.398-2.08 0.602-3.15 4.41-21.9 11.1-48.7 29.8-62.9-3.39-1.13-3.72-1-6.75 0.5-4.57 2.42-7.78 5.72-11.2 9.5-4.68 4.84-4.68 4.84-7 6 0.0722-0.559 0.144-1.12 0.219-1.7 0.858-7.41 1.13-14.8 0.781-22.3-0.983-1.21-0.983-1.21-2.85-1.1-2.05 0.0326-4.1 0.0651-6.15 0.0977zm117 4.19c-5.37 6.9-1.8 20.1-0.812 28.3 0.126 1.15 0.253 2.3 0.383 3.49 0.129 1.11 0.258 2.21 0.391 3.35 0.115 0.992 0.23 1.98 0.349 3.01 0.493 2.6 1.05 4.44 2.5 6.65 2.56 0.812 2.56 0.812 5 1-0.228 0.617-0.456 1.23-0.691 1.87-0.287 0.847-0.575 1.69-0.871 2.57-0.29 0.824-0.58 1.65-0.879 2.5-1.62 8.92 1.87 17.9 4.38 26.4 0.195 0.667 0.39 1.33 0.591 2.02 3.01 10.3 6.33 20.4 9.91 30.5 0.425 1.2 0.849 2.39 1.29 3.63 1.86 5.75 1.86 5.75 5.28 10.6 1.92 0.175 1.92 0.175 4-0.125 0.701-0.0645 1.4-0.129 2.12-0.195 1.98-0.533 1.98-0.533 3.11-2.23 1.15-3.71-0.0704-6.77-1.16-10.4-0.22-0.77-0.44-1.54-0.667-2.33-0.707-2.46-1.43-4.92-2.16-7.38-0.938-3.22-1.87-6.44-2.8-9.66-0.222-0.768-0.445-1.54-0.674-2.33-1.55-5.42-2.81-10.8-3.78-16.4 2.48-0.99 2.48-0.99 5-2-0.784-0.722-1.57-1.44-2.38-2.19-3.71-3.97-4.6-6.13-4.69-11.6 1.56-9.46 11.1-16.5 18.1-22.2 0.66-0.33 1.32-0.66 2-1-0.33-0.66-0.66-1.32-1-2-7.98 4.18-13.9 9.42-20 16-0.637-14.5 1.04-29.3 6-43-3.37 1.06-4.09 2.14-5.92 5.26-0.622 1.28-1.23 2.57-1.83 3.87-0.316 0.659-0.632 1.32-0.957 2-0.775 1.62-1.54 3.25-2.29 4.88h-3c-0.146-0.59-0.292-1.18-0.443-1.79-0.664-2.68-1.33-5.35-1.99-8.02-0.23-0.929-0.46-1.86-0.697-2.81-0.222-0.893-0.445-1.79-0.674-2.71-0.204-0.822-0.408-1.64-0.619-2.49-0.459-1.74-1-3.47-1.57-5.18-3.23-1.11-4.63-1.16-7.81 0.188zm35.8-0.188c0.721 3.25 0.721 3.25 3.81 4.69 5.41 3.92 7.48 9.84 8.96 16.2 0.339 3.06-0.103 5.89-0.676 8.9-0.26 2.26-0.26 2.26 0.938 4.47 1.3 3.63 0.713 6.59-0.0312 10.3-0.134 0.699-0.269 1.4-0.407 2.12-1.24 5.84-3.46 10.8-6.39 16.1-1.36 2.13-1.36 2.13-1.21 4.26 4.24-0.756 5.86-2.47 8.49-5.75 5.3-7.89 7.35-16.9 9.08-26.1 0.815-4.15 1.59-6.87 4.43-10.1v-2c-0.593-0.202-1.19-0.405-1.8-0.613-3.1-1.95-3.89-4.28-5.45-7.57-3.02-5.81-5.94-10.5-11.8-13.8-2.81-0.784-5.05-0.947-8-1zm-119 4c0.507 0.657 0.507 0.657 1.02 1.33 6.41 9.11 6.32 20 6.23 30.8-0.00387 1.1-0.00773 2.21-0.0117 3.35-0.106 10.4-0.879 20.8-1.8 31.2-0.334 3.8-0.543 7.54-0.438 11.4 1.65 0.33 3.3 0.66 5 1 2.93-5.6 5.2-11.2 7.25-17.1 9.01-25.1 9.01-25.1 19.8-30.9 0.99 0.33 1.98 0.66 3 1 0.11 0.911 0.219 1.82 0.332 2.76 0.437 3.57 0.888 7.14 1.35 10.7 0.22 1.73 0.435 3.47 0.646 5.2 0.336 2.76 0.692 5.51 1.05 8.26 0.102 0.863 0.203 1.73 0.308 2.61 0.778 5.8 2.02 11.5 5.32 16.4 2.04 1.27 2.04 1.27 4 2-0.133-0.891-0.266-1.78-0.402-2.7-1.52-11.1-1.94-22.1-1.99-33.2-0.125-6.84-0.35-11.6-4.61-17.1-3.23-1.61-5.41-1.4-9-1-6.71 3.04-10.9 7.91-15.1 13.8-2.17 2.46-3.89 3.07-6.92 4.17 0.0157-1.01 0.0157-1.01 0.0317-2.04 0.042-3.11 0.0677-6.22 0.0933-9.33 0.0168-1.06 0.0335-2.12 0.0508-3.21 0.0496-8.08 0.103-17-4.61-23.9-0.411-0.629-0.822-1.26-1.25-1.91-1.41-1.87-1.41-1.87-4.32-3.59-2.63-0.167-2.63-0.167-5 0zm117 4c-3.15 4.01-4.09 8.51-5.19 13.4-0.177 0.73-0.354 1.46-0.537 2.21-1.06 4.58-1.46 8.71-1.28 13.4 3.85-1.42 7.21-3.2 10.7-5.38 0.953-0.585 1.91-1.17 2.89-1.77 2.5-1.9 3.62-2.83 4.43-5.85-1.19-5.81-3.62-11.9-8-16h-3zm9 34c-6.7 3.85-12.2 9.35-15.6 16.3-0.537 2.64-0.537 2.64 0.188 5 1.38 1.87 1.38 1.87 3.81 2.69 2.69 0.266 2.69 0.266 4.58-1.5 2.66-3.26 3.93-6.57 5.36-10.5 0.277-0.712 0.553-1.42 0.838-2.16 1.38-3.73 2.07-6.05 0.85-9.84z" fill="#000002"/>
<path transform="translate(842 539)" d="m0 0c4.37 2.26 7.6 4.97 10.2 9.14 0.897 2.94 1.18 5.71 1.32 8.77 0.0628 1.33 0.0628 1.33 0.127 2.7 0.0393 0.92 0.0786 1.84 0.119 2.79 0.0432 0.936 0.0864 1.87 0.131 2.84 0.106 2.3 0.208 4.61 0.307 6.91 0.424-0.603 0.848-1.21 1.29-1.83 4.61-6.29 8.78-10.7 16.7-12.2 8.46-0.476 16.6-0.871 23.6 4.5 8.44 7.83 12.3 18.7 12.9 30 0.023 2.03 0.023 4.06 0.00391 6.09-0.00395 1.13-0.0079 2.25-0.012 3.41-0.216 13.7-1.73 27.2-3.19 40.8-1.04 9.72-1.87 19.4-2.24 29.2-0.0352 0.78-0.0705 1.56-0.107 2.36-0.539 13.1 1.13 24.7 4.36 37.3 0.402 1.64 0.802 3.29 1.2 4.93 1.36 5.58 2.75 11.2 4.14 16.7 6.6 26.5 6.6 26.5 0.849 37.7-4.56 7.06-10 12.7-16.4 18.2-2.11 1.85-4.07 3.78-6.04 5.78-3.17 3.21-6.46 6.21-9.88 9.16-3.23 2.8-6.39 5.67-9.56 8.53-1.66 1.5-3.33 2.98-5 4.46-21.3 17.8-21.3 17.8-32.1 42-0.0718 1.42-0.13 2.84-0.176 4.25-0.0342 0.732-0.0683 1.46-0.104 2.22-0.0815 1.78-0.147 3.56-0.209 5.35-1.65 0.33-3.3 0.66-5 1-2.78-7.37-2.47-13.9 0.176-21.3 7.19-15.8 20.6-28.6 33.6-39.8 2.79-2.43 5.51-4.94 8.23-7.45 4.05-3.73 8.15-7.4 12.3-11 1.59-1.42 3.08-2.9 4.56-4.44 2.12-2.06 2.12-2.06 4.12-2.06v-2c1.5-1.41 1.5-1.41 3.56-3.06 6.24-5.32 12.3-11.9 14.4-19.9 0.196-11.3-2.94-22.1-5.69-32.9-0.459-1.83-0.917-3.67-1.37-5.5-0.897-3.59-1.8-7.18-2.71-10.8-1.03-4.07-2.04-8.14-3.05-12.2-3.62-18.4-3.62-18.4-14.2-32.6-7.64-1.44-14.3-0.447-21.9 0.875-13 2.19-25.3 3.26-38.6 3.12-2.7-0.0266-5.4-0.0465-8.09-0.0625-1.18-0.0116-2.37-0.0232-3.58-0.0352-2.77-0.0999-2.77-0.0999-4.82 1.1-1.38 5.6-1.25 9.06 1.67 14.1 8.05 11.7 25.5 22.1 39.3 24.9 6.89 0.53 11.9-1.13 17.8-4.69 3-3.08 4.51-6.43 6.25-10.3 0.661-1.34 1.33-2.67 2-4h4c0.441 6.28-0.295 9.91-4 15-0.567 0.815-1.13 1.63-1.72 2.47-2.72 3.02-5.41 4.5-9.03 6.34-1.17 0.605-2.34 1.21-3.55 1.83-0.892 0.447-1.78 0.895-2.7 1.36v8c4.95-0.33 9.9-0.66 15-1v4c-2.72 2.72-4.85 2.61-8.62 3.12-1.78 0.251-1.78 0.251-3.6 0.508-0.915 0.121-1.83 0.242-2.77 0.367 1.28 3.61 1.28 3.61 3.62 6.56 1.38 1.44 1.38 1.44 1.38 5.44-2.19 0.312-2.19 0.312-5 0-4.53-3.48-5.76-6.53-7-12-0.13-2.64-0.172-5.29-0.125-7.94 0.00902-0.684 0.018-1.37 0.0273-2.07 0.0233-1.66 0.0591-3.33 0.0977-4.99-1.09-0.259-1.09-0.259-2.21-0.523-18-4.83-36.1-15.4-46.5-31.1-2.35-4.47-2.6-8.32-2.25-13.4 1.45-3.59 2.93-6.57 6-9 3.5-1.17 6.18-1.08 9.88-1.03 1.4 0.0145 2.8 0.0284 4.21 0.0417 0.732 0.00833 1.46 0.0167 2.22 0.0252 16.4 0.166 31.8-0.486 47.9-4.43 6.94-1.5 13.6-1.32 19.8 2.39 1.91 1.95 1.91 1.95 3.74 4.12 0.615 0.724 1.23 1.45 1.86 2.2 0.691 0.831 0.691 0.831 1.4 1.68 0.797-7.16 1.58-14.3 2.35-21.5 0.357-3.33 0.719-6.66 1.09-9.99 1.46-13.1 2.83-26.2 2.85-39.5 0.00226-0.917 0.00451-1.83 0.00684-2.78-0.123-10.1-2.33-18.7-8.64-26.7-4.47-4.27-8.03-5-14.2-4.96-1.93-0.0116-1.93-0.0116-3.91-0.0234-6.06 0.671-9.42 3.7-13.1 8.28-6.38 9.13-8.03 19.3-9.48 30.1-0.275 1.94-0.275 1.94-0.555 3.91-0.72 6.79-0.743 13.6-0.795 20.4-0.0167 1.6-0.0441 3.2-0.082 4.81-0.0548 2.34-0.0766 4.67-0.0913 7.01-0.034 1.07-0.034 1.07-0.0687 2.16 0.0166 3.9 0.472 5.52 2.95 8.6 3.16 2.48 4.62 3.07 8.64 3.07 3.2-0.617 6.2-1.31 9-3 2.4-4.38 3.3-9.67 4.5-14.5 0.229-0.892 0.457-1.78 0.693-2.7 1.24-4.96 2.05-9.68 2.43-14.8 0.994-7.98 6.74-12.8 12.4-18 0.99 0.33 1.98 0.66 3 1-0.211 4.21-1.17 6.38-3.89 9.45-4 5.18-4.74 10.6-5.73 16.9-3.73 22.5-3.73 22.5-12.4 29.6-5.48 2.76-11 2.53-17 2-4.3-1.51-6.59-3.12-9-7-2.26 1.09-4.37 2.23-6.5 3.56-5.82 3.35-12.3 3.08-18.7 1.62-3.38-1.05-5.91-2.19-8.81-4.19-0.814 0.741-0.814 0.741-1.64 1.5-0.715 0.641-1.43 1.28-2.17 1.94-1.06 0.957-1.06 0.957-2.14 1.93-4.84 3.86-11.2 3.06-17 2.63-4.82-1.67-7.52-4.34-11-8-1.99-1.87-1.99-1.87-4-3-1.49 0.495-1.49 0.495-3 1-9.22 0.922-16.1-0.923-23.6-6.38-5.56-5.04-9.46-13.1-12.4-19.9-1.31-2.22-2.71-2.99-4.95-4.23-3.07-1.82-5.34-3.27-7.06-6.5v-3c6.62 0.75 6.62 0.75 10 3v-5c2.48-0.495 2.48-0.495 5-1 0.303 1.19 0.606 2.39 0.918 3.62 4.64 17.8 4.64 17.8 17.4 30.6 4.48 2.41 9.1 3.41 14.1 2.12 2.3-2.02 2.28-3.31 2.56-6.38-0.47-3.16-1.26-6.22-2.06-9.31-0.226-0.906-0.452-1.81-0.685-2.74-0.488-1.95-0.979-3.9-1.47-5.85-0.806-3.21-1.58-6.42-2.34-9.64-0.519-2.15-1.04-4.3-1.56-6.46-0.241-1.02-0.482-2.04-0.731-3.09-1.8-7.99-1.8-7.99-6.8-14.2-6.81-3.4-14.3-4.99-21.7-2.55-6.63 3.02-10 8.31-12.6 14.9-1.59 4.95-2.39 9.65-2.71 14.8-0.112 1.5-0.224 3.01-0.336 4.51-0.165 2.32-0.326 4.65-0.479 6.98-0.72 10.7-2.27 20.4-5.47 30.7-0.348 1.12-0.696 2.25-1.05 3.41-1.06 3.35-2.16 6.69-3.26 10-18.7 57.6-30.1 122-7.95 181 2.61 6.92 4.62 13.8 6.26 21-1.65 0.33-3.3 0.66-5 1-2.55-3.92-4.24-7.95-5.78-12.3-0.253-0.715-0.505-1.43-0.766-2.17-0.533-1.52-1.06-3.04-1.59-4.56-0.782-2.24-1.59-4.48-2.4-6.71-7.25-20.5-9.18-40.9-8.97-62.5 0.00521-1.13 0.0104-2.25 0.0158-3.41 0.104-19.3 1.27-38.2 4.48-57.3 0.182-1.1 0.364-2.19 0.551-3.32 2.76-16 7.45-31.3 12.4-46.7 1.11-3.43 2.21-6.85 3.32-10.3 0.685-2.12 1.37-4.24 2.07-6.36 3.96-12.2 5.3-23.9 6.22-36.6 1.04-14.2 2.77-27.9 13.7-38.2 6.19-4.81 13-6.17 20.7-5.56 2.72 0.546 5.33 1.24 8 2 0.0258-0.678 0.0516-1.36 0.0781-2.05 0.548-8.99 1.99-16.7 8.86-22.9 6.78-5.61 13.6-5.68 22.1-5 2.71 0.626 5.26 1.39 7.88 2.34 2.39 0.853 2.39 0.853 6.12 0.656 1.78-1.81 1.78-1.81 3.31-4.19 9.28-12.7 24.6-13.9 38.5-7.95zm-33.2 10.1c-4.28 5.58-4.81 9.24-3.94 16.1 0.153 1.06 0.305 2.12 0.463 3.21 0.303 2.34 0.605 4.67 0.906 7.01 0.168 1.25 0.335 2.5 0.508 3.78 0.83 6.27 1.58 12.6 2.33 18.8 0.172 1.45 0.346 2.9 0.522 4.35 1.29 10.6 2.32 21.3 2.82 32 0.367 6.02 1.33 9.83 4.86 14.8 4.87 3.6 10.2 3.85 16 3 4.88-2.35 7.36-5.31 10-10 0.91-2.92 1.16-5.63 1.25-8.68 0.0475-1.37 0.0475-1.37 0.0959-2.77 0.0315-0.984 0.063-1.97 0.0955-2.98 0.235-6.55 0.555-13 1.35-19.6 1.31-11 1.52-22 1.62-33.1 0.0193-1.92 0.047-3.83 0.0833-5.75 0.048-2.72 0.062-5.44 0.0669-8.17 0.0194-0.821 0.0389-1.64 0.0589-2.49-0.0321-4.15-0.359-6.75-3.02-10-5.61-5.46-12.2-7.19-20-7.61-7.02 0.239-11.3 3.17-16.1 8.08zm-41.5 9.01c-4.44 6.99-7.45 14.6-6 23 1.18 2.11 1.18 2.11 2.75 4.12 3.91 5.37 5.06 10.8 6.58 17.2 0.811 3.22 1.71 6.41 2.62 9.6 0.356 1.26 0.712 2.52 1.08 3.81 0.712 2.51 1.43 5.02 2.15 7.53 1.95 6.97 3.41 13.7 4.23 20.9 0.905 4.24 3.17 7.15 6.59 9.75 4.62 1.54 9.18 1.65 14 1 2.9-2.2 4.39-3.79 6-7 0.939-15.4-0.985-30.7-2.76-45.9-0.335-2.92-0.652-5.83-0.971-8.75-0.331-3-0.672-6-1.02-9-0.165-1.45-0.326-2.89-0.485-4.34-0.224-2.03-0.461-4.06-0.703-6.09-0.199-1.74-0.199-1.74-0.402-3.52-0.968-4.93-2.35-9.05-5.97-12.7-7.64-4.8-20.8-6.94-27.7 0.312z" fill="#000002"/>
</svg>
