<?xml version="1.0" encoding="UTF-8"?>
<svg version="1.1" viewBox="0 0 2048 447" width="631" height="138" xmlns="http://www.w3.org/2000/svg">
<path transform="translate(839,111)" d="m0 0h65l7 14 11 28 20 49 12 30 3 8 5-12 16-39 16-40 15-37 1-1h51l-3 10-20 50-15 37-39 97-10 23-2 1h-30l-4-6-11-27-25-62-9-22-2-2v118l-2 1h-49l-1-1z" fill="#030303"/>
<path transform="translate(1837,107)" d="m0 0 24 1 17 3 21 7 16 9 14 11 2 2-1 5-12 16-13 17-6-1-12-9-20-9-11-3h-29l-9 5-3 5v6l5 5 12 5 43 12 19 7 11 6 10 9 7 7 6 10 4 13 1 5v21l-4 16-8 15-11 12-11 7-16 6-19 4-11 1h-18l-26-4-18-6-17-9-12-9-10-9-2-4 12-16 9-13 6-8 5 2 4 5 14 10 16 8 15 4 6 1h18l15-4 7-6 2-8-3-6-8-5-24-7-25-7-17-6-15-8-12-11-7-9-4-9-3-10-1-5v-17l3-13 7-14 8-10 13-10 14-7 15-4z" fill="#030303"/>
<path transform="translate(1620,107)" d="m0 0h12l23 2 18 5 14 6 15 9 13 10 1 3-9 13-9 12-7 9-2 2-5-1-14-10-15-7-16-4h-27l-9 5-3 6v6l4 4 12 5 44 12 19 7 14 9 12 11 7 11 5 16 1 7v14l-3 15-5 12-9 13-8 7-10 6-18 7-16 3-13 1h-18l-24-4-20-7-17-9-13-10-9-9 5-9 12-17 9-12h4l6 5v2l4 2 11 8 15 7 9 3 13 2h15l14-3 9-6 2-3v-8l-3-5-10-5-24-7-26-7-18-7-14-9-10-9-7-11-5-14-1-5v-20l3-13 5-10 8-11h2l1-3h2v-2l10-7 14-7 14-4z" fill="#030303"/>
<path transform="translate(610,111)" d="m0 0h51l1 1 1 93 1 43 3 12 6 11 2 4 14 7 8 2h19l16-4 10-7 6-9 3-10 1-5 1-90 1-48h51l2 1v137l-2 16-5 16-8 16-12 13-9 7-15 8-15 5-10 2-14 1h-18l-23-3-17-6-15-8-11-9-9-11-8-16-4-13-2-9-1-14v-126z" fill="#030303"/>
<path transform="translate(391,111)" d="m0 0h50l1 1 1 78 5-5 11-13 10-13 13-16 14-18 10-13 1-1h64l-2 4-11 13-14 17-13 15-9 11-8 9-9 11-10 11-7 9 1 6 9 11 11 14 14 17 10 13 14 17 22 28 8 11v1h-64l-9-11-12-16-16-21-21-28-4 2-7 8-2 65-2 1h-49l-1-1v-216z" fill="#030303"/>
<path transform="translate(1108,111)" d="m0 0h106l17 2 14 5 11 6 13 12 7 10 5 12 3 15v18l-4 16-8 16-12 13-14 9-16 5-13 2h-57v76l-51 1-1-1zm52 46v49h23l30-1 8-4 5-4 4-8 1-5v-8l-5-10-7-6-6-2-28-1z" fill="#030303"/>
<path transform="translate(1363,111)" d="m0 0h57l6 12 21 55 20 51 19 49 16 42 2 5-1 4h-57l-5-11-10-28-8-24-10-28-16-46-5-13v-3h-2l-3 12-21 61-12 33-9 26-8 20-1 1h-57l1-9 18-46 32-82 21-55 9-22z" fill="#040404"/>
<path transform="translate(92,111)" d="m0 0h154l1 1v45l-1 1h-154z" fill="#0B0B0B"/>
<path transform="translate(92,198)" d="m0 0h154l1 2v43l-1 1h-154z" fill="#080808"/>
<path transform="translate(92,283)" d="m0 0h154l1 1v44l-2 1h-152l-1-1z" fill="#080808"/>
<path transform="translate(1024,242)" d="m0 0h51l1 1v84l-1 1-50 1-1-1z" fill="#090909"/>
<path transform="translate(280,229)" d="m0 0h77l1 2v38l-77 1-2-1v-39z" fill="#0A0A0A"/>
<path transform="translate(1423,275)" d="m0 0 2 2-11 18-19 29-4 4-8-11-12-19-13-19-1-3z" fill="#0C0C0C"/>
</svg>
