<?xml version="1.0" encoding="UTF-8"?>
<svg version="1.1" viewBox="0 0 2048 526" width="537" height="138" xmlns="http://www.w3.org/2000/svg">
<path transform="translate(986,131)" d="m0 0h76l4 6 11 27 12 30 15 37 16 40 4 11 1 1 11-28 15-37 14-35 11-27 9-22 2-3h60l-11 29-26 65-20 49-22 56-14 34-9 21-2 2h-36l-5-8-14-34-14-35-13-32-12-29-3-2 1 3v136l-2 1h-58l-1-1z"/>
<path transform="translate(1903,126)" d="m0 0h15l23 2 18 4 16 6 19 10 13 9 9 8-1 4-9 13-18 24-4 4-4-1-17-12-19-9-15-4-7-1h-25l-10 4-5 4-2 5v8l6 5 9 4 61 17 15 6 14 8 10 8 9 9 7 11 5 13 3 18v11l-3 17-5 14-9 14-9 10-13 8-10 5-17 6-21 3-21 1-16-1-25-5-20-7-21-11-14-11-11-11 2-5 8-12 11-15 10-14 5 2 11 11 18 11 16 7 11 3 7 1h25l13-3 10-6 3-4 1-7-3-7-6-5-16-6-30-8-22-6-18-7-16-10-10-9-7-8-8-16-4-17v-18l4-18 6-12 10-13 7-7 15-10 14-6 21-5z"/>
<path transform="translate(717,131)" d="m0 0h60l1 1 1 106 1 52 3 15 7 13 6 7 13 7 8 2h27l15-4 10-6 8-9 4-9 3-15 1-108 1-52h62v166l-3 18-6 18-9 17-11 12-7 7-17 10-17 7-15 4-9 1-23 1-18-1-19-3-18-6-19-10-11-9-7-7-9-14-6-12-5-16-2-10-1-11-1-27v-96l1-36z"/>
<path transform="translate(459,131)" d="m0 0h60v94l7-6 11-14 12-15 11-14 13-16 15-20 8-9h75l-3 5-9 11-9 10-11 14-10 11-16 20h-2l-2 4-12 14-9 11-11 12-4 6 1 6 11 13 10 13 8 10 13 16 11 14 13 16 11 14 12 15 10 13 5 7v1h-75l-10-12-12-16-16-21-12-16-14-18-4-6-4 1-7 7-3 6-1 54-1 20-1 1h-59l-1-2v-253z"/>
<path transform="translate(1302,131)" d="m0 0h129l16 2 12 4 12 6 13 10 8 8 9 14 5 14 3 17v15l-4 19-5 13-7 11-9 10-8 7-14 8-16 5-11 2h-72v90l-44 1h-16l-1-1zm61 54v57h48l15-1 10-5 7-8 3-9v-13l-5-10-8-7-8-3-26-1z"/>
<path transform="translate(1601,131)" d="m0 0h68l5 10 30 78 28 72 19 49 16 42-1 5h-66l-4-6-12-34-9-26-26-74-11-31-3-9h-2l-2 10-18 53-17 48-14 40-11 27-2 2h-65l-1-1 1-8 16-42 19-49 11-28 16-41 11-29 15-39 7-17z"/>
<path transform="translate(108,131)" d="m0 0h181l1 1v53l-1 1h-180l-1-1z"/>
<path transform="translate(108,333)" d="m0 0h181l1 1v52l-2 1h-179l-1-1z"/>
<path transform="translate(109,233)" d="m0 0h180l1 2v51l-1 1h-180l-1-1v-52z"/>
<path transform="translate(1203,285)" d="m0 0h61v100l-1 1-58 1-2-2z"/>
<path transform="translate(329,270)" d="m0 0h91v47h-91l-1-1v-45z"/>
<path transform="translate(1595,324)" d="m0 0h79l-2 5-4 8-17 26-13 20-2 3-3-1-12-19-24-36-3-5z"/>
</svg>
